<svg width="30" height="31" viewBox="0 0 30 31" fill="none" xmlns="http://www.w3.org/2000/svg">
<path d="M27.5 7.95312V5.45312L17.5 11.7031L7.5 5.45312V7.95312L17.5 14.2031L27.5 7.95312ZM27.5 2.95312C28.163 2.95313 28.7989 3.21652 29.2678 3.68536C29.7366 4.1542 30 4.79008 30 5.45312V20.4531C30 21.1162 29.7366 21.7521 29.2678 22.2209C28.7989 22.6897 28.163 22.9531 27.5 22.9531H7.5C6.83696 22.9531 6.20107 22.6897 5.73223 22.2209C5.26339 21.7521 5 21.1162 5 20.4531V5.45312C5 4.06562 6.1125 2.95312 7.5 2.95312H27.5ZM2.5 7.95312V25.4531H25V27.9531H2.5C1.83696 27.9531 1.20107 27.6897 0.732233 27.2209C0.263392 26.7521 0 26.1162 0 25.4531V7.95312H2.5Z" fill="#FEFEFE"/>
</svg>
