<svg width="30" height="30" viewBox="0 0 30 30" fill="none" xmlns="http://www.w3.org/2000/svg">
<path d="M9.91667 17.3333H5.96667C5.56408 15.8038 5.56408 14.1962 5.96667 12.6667H9.91667C9.8139 13.4404 9.75824 14.2196 9.75 15C9.75824 15.7804 9.8139 16.5596 9.91667 17.3333V17.3333ZM6.93333 10.3333H10.3333C10.7221 8.89369 11.27 7.5018 11.9667 6.18333C9.84058 6.9095 8.05145 8.38464 6.93333 10.3333V10.3333ZM23.0667 10.3333C21.9398 8.38552 20.1459 6.91139 18.0167 6.18333C18.723 7.49548 19.2659 8.88918 19.6333 10.3333H23.0667ZM15 24.2833C15.9904 22.876 16.7447 21.3167 17.2333 19.6667H12.7667C13.2553 21.3167 14.0096 22.876 15 24.2833V24.2833ZM15 5.7C14.0088 7.11285 13.2544 8.67781 12.7667 10.3333H17.2333C16.7456 8.67781 15.9912 7.11285 15 5.7V5.7ZM6.93333 19.6667C8.05847 21.6094 9.84507 23.0825 11.9667 23.8167C11.27 22.4982 10.7221 21.1063 10.3333 19.6667H6.93333ZM30 3.33333V26.6667C30 27.5507 29.6488 28.3986 29.0237 29.0237C28.3986 29.6488 27.5507 30 26.6667 30H3.33333C2.44928 30 1.60143 29.6488 0.976311 29.0237C0.351189 28.3986 0 27.5507 0 26.6667V3.33333C0 2.44928 0.351189 1.60143 0.976311 0.976311C1.60143 0.351189 2.44928 0 3.33333 0H26.6667C27.5507 0 28.3986 0.351189 29.0237 0.976311C29.6488 1.60143 30 2.44928 30 3.33333ZM26.6667 15C26.6667 12.6926 25.9824 10.4369 24.7005 8.51835C23.4185 6.59977 21.5964 5.10443 19.4646 4.22141C17.3328 3.33838 14.9871 3.10734 12.7239 3.5575C10.4608 4.00767 8.38203 5.11881 6.75042 6.75042C5.11881 8.38203 4.00767 10.4608 3.5575 12.7239C3.10734 14.9871 3.33838 17.3328 4.22141 19.4646C5.10443 21.5964 6.59977 23.4185 8.51835 24.7005C10.4369 25.9824 12.6926 26.6667 15 26.6667C18.0942 26.6667 21.0617 25.4375 23.2496 23.2496C25.4375 21.0617 26.6667 18.0942 26.6667 15V15ZM20.25 15C20.2418 15.7804 20.1861 16.5596 20.0833 17.3333H24.0333C24.4359 15.8038 24.4359 14.1962 24.0333 12.6667H20.0833C20.1861 13.4404 20.2418 14.2196 20.25 15V15ZM18.0167 23.8167C20.1437 23.0846 21.9363 21.6115 23.0667 19.6667H19.6333C19.2659 21.1108 18.723 22.5045 18.0167 23.8167V23.8167ZM12.2667 12.6667C12.0179 14.2123 12.0179 15.7877 12.2667 17.3333H17.7333C17.8475 16.5606 17.9087 15.781 17.9167 15C17.9092 14.2189 17.8479 13.4393 17.7333 12.6667H12.2667Z" fill="#FEFEFE"/>
</svg>
