<svg width="61" height="60" viewBox="0 0 61 60" fill="none" xmlns="http://www.w3.org/2000/svg">
<ellipse cx="30.4722" cy="29.893" rx="30" ry="29.3974" fill="white"/>
<g clip-path="url(#clip0)">
<g clip-path="url(#clip1)">
<path d="M36.0172 15.5985L24.8496 15.5392C20.3111 15.5152 16.5991 19.188 16.575 23.7266L16.5158 34.8942C16.4917 39.4328 20.1646 43.1448 24.7032 43.1688L35.8707 43.228C40.4093 43.2521 44.1213 39.5793 44.1454 35.0407L44.2046 23.8731C44.2286 19.3345 40.5558 15.6225 36.0172 15.5985ZM41.3658 35.0259C41.3499 38.0367 38.8962 40.4645 35.8855 40.4485L24.7179 40.3893C21.7072 40.3733 19.2794 37.9196 19.2953 34.9089L19.3545 23.7413C19.3705 20.7306 21.8242 18.3028 24.8349 18.3188L36.0025 18.378C39.0132 18.394 41.441 20.8476 41.425 23.8584L41.3658 35.0259Z" fill="url(#paint0_linear)"/>
<path d="M30.3979 22.2373C26.4576 22.2165 23.235 25.4051 23.2141 29.3454C23.1932 33.2857 26.3819 36.5084 30.3222 36.5293C34.2625 36.5502 37.4852 33.3615 37.506 29.4212C37.5269 25.4809 34.3382 22.2582 30.3979 22.2373ZM30.3369 33.7498C27.9254 33.737 25.9808 31.7717 25.9936 29.3602C26.0064 26.9486 27.9717 25.0041 30.3832 25.0169C32.7948 25.0297 34.7393 26.9949 34.7265 29.4065C34.7137 31.818 32.7484 33.7626 30.3369 33.7498Z" fill="url(#paint1_linear)"/>
<path d="M37.5487 24.0414C38.4944 24.0464 39.265 23.2838 39.2701 22.3381C39.2751 21.3925 38.5125 20.6218 37.5668 20.6167C36.6211 20.6117 35.8504 21.3743 35.8454 22.32C35.8404 23.2657 36.603 24.0364 37.5487 24.0414Z" fill="url(#paint2_linear)"/>
</g>
</g>
<defs>
<linearGradient id="paint0_linear" x1="30.2874" y1="43.118" x2="30.4323" y2="15.7835" gradientUnits="userSpaceOnUse">
<stop stop-color="#E09B3D"/>
<stop offset="0.3" stop-color="#C74C4D"/>
<stop offset="0.6" stop-color="#C21975"/>
<stop offset="1" stop-color="#7024C4"/>
</linearGradient>
<linearGradient id="paint1_linear" x1="30.2872" y1="43.1177" x2="30.4322" y2="15.7832" gradientUnits="userSpaceOnUse">
<stop stop-color="#E09B3D"/>
<stop offset="0.3" stop-color="#C74C4D"/>
<stop offset="0.6" stop-color="#C21975"/>
<stop offset="1" stop-color="#7024C4"/>
</linearGradient>
<linearGradient id="paint2_linear" x1="37.4473" y1="43.1558" x2="37.5922" y2="15.8212" gradientUnits="userSpaceOnUse">
<stop stop-color="#E09B3D"/>
<stop offset="0.3" stop-color="#C74C4D"/>
<stop offset="0.6" stop-color="#C21975"/>
<stop offset="1" stop-color="#7024C4"/>
</linearGradient>
<clipPath id="clip0">
<rect width="32.2785" height="31.6301" fill="white" transform="translate(14.1431 13.8918)"/>
</clipPath>
<clipPath id="clip1">
<rect width="27.63" height="27.63" fill="white" transform="translate(16.6187 15.4956) rotate(0.303771)"/>
</clipPath>
</defs>
</svg>
