<svg width="81" height="81" viewBox="0 0 81 81" fill="none" xmlns="http://www.w3.org/2000/svg">
<circle cx="40.2427" cy="40.4229" r="40" fill="#3C8CFF"/>
<path d="M49.1861 45.4401H44.288V43.53C45.9614 42.5039 47.2413 40.8977 47.8451 38.9938H48.9756C51.4831 38.9938 53.5231 36.9538 53.5231 34.4462C53.5231 33.064 52.9024 31.8246 51.926 30.9898V30.5867C51.926 24.005 46.5714 18.6504 39.9897 18.6504C33.408 18.6504 28.0534 24.005 28.0534 30.5867V30.9899C27.077 31.8247 26.4563 33.064 26.4563 34.4463C26.4563 36.9539 28.4963 38.9939 31.0039 38.9939H32.1344C32.7381 40.8977 34.018 42.5038 35.6915 43.5301V45.4402H30.7933C25.2037 45.4401 20.6562 49.9876 20.6562 55.5771V60.8478C20.6562 61.3119 21.0326 61.6884 21.4968 61.6884H27.0603C27.5246 61.6884 27.9009 61.3119 27.9009 60.8478C27.9009 60.3836 27.5246 60.0072 27.0603 60.0072H22.3374V55.5771C22.3374 50.9146 26.1306 47.1213 30.7933 47.1213H31.1968L36.1947 53.65C36.3419 53.8423 36.565 53.9618 36.8068 53.9778C36.8253 53.979 36.8437 53.9795 36.8622 53.9795C37.0844 53.9795 37.2984 53.8914 37.4566 53.7333L39.1491 52.0409V60.0072H34.6256C34.1613 60.0072 33.785 60.3836 33.785 60.8478C33.785 61.3119 34.1613 61.6884 34.6256 61.6884H58.4826C58.9468 61.6884 59.3232 61.3119 59.3232 60.8478V55.5771C59.3232 49.9876 54.7757 45.4401 49.1861 45.4401ZM44.0687 47.1213H46.6654L43.0331 51.866L41.1785 50.0115L44.0687 47.1213ZM42.8971 27.4355C42.5685 27.1076 42.0362 27.1082 41.7084 27.437L40.5877 28.5605C39.3325 29.8188 37.6626 30.5118 35.8854 30.5118H33.435C33.4755 26.931 36.3996 24.0301 39.9897 24.0301C43.5799 24.0301 46.5039 26.931 46.5443 30.5117H45.0862C44.0194 30.5117 43.0217 29.9703 42.4369 29.0872L42.8986 28.6243C43.2266 28.2956 43.2259 27.7633 42.8971 27.4355ZM48.9756 37.3127H48.2274V31.5799H48.9756C50.5561 31.5799 51.842 32.8659 51.842 34.4464C51.842 36.027 50.5561 37.3127 48.9756 37.3127ZM39.9897 20.3316C45.4734 20.3316 49.9654 24.658 50.2322 30.0767C49.8328 29.9616 49.4115 29.8988 48.9756 29.8988H48.1984C47.8478 25.6772 44.3003 22.349 39.9897 22.349C35.6791 22.349 32.1317 25.6772 31.781 29.8987H31.0039C30.5679 29.8987 30.1467 29.9616 29.7473 30.0766C30.014 24.658 34.506 20.3316 39.9897 20.3316ZM31.752 37.3127H31.0039C29.4233 37.3127 28.1375 36.0269 28.1375 34.4463C28.1375 32.8658 29.4233 31.5799 31.0039 31.5799H31.752V37.3127ZM33.4331 36.5154V32.1929H35.8854C37.8551 32.1929 39.7195 31.5131 41.2123 30.2652C42.123 31.4667 43.5583 32.1929 45.0862 32.1929H46.5463V36.5154C46.5463 36.9699 46.4994 37.4136 46.4106 37.8422H42.9824C42.6354 36.8639 41.7011 36.161 40.6052 36.161H39.9327C38.5422 36.161 37.411 37.2923 37.411 38.6828C37.411 40.0733 38.5422 41.2046 39.9327 41.2046H40.6052C41.701 41.2046 42.6354 40.5017 42.9824 39.5234H45.8098C44.7166 41.6223 42.5189 43.0602 39.9896 43.0602C36.3744 43.0602 33.4331 40.1242 33.4331 36.5154ZM41.4459 38.6828C41.4459 39.1463 41.0688 39.5234 40.6053 39.5234H39.9328C39.4693 39.5234 39.0922 39.1463 39.0922 38.6828C39.0922 38.2193 39.4693 37.8422 39.9328 37.8422H40.6053C41.0688 37.8422 41.4459 38.2194 41.4459 38.6828ZM39.9897 44.7414C40.9042 44.7414 41.7842 44.5916 42.6068 44.3157V46.2056L39.9897 48.8227L37.3726 46.2055V44.3156C38.1952 44.5915 39.0752 44.7414 39.9897 44.7414ZM36.9463 51.866L33.314 47.1213H35.9108L38.801 50.0115L36.9463 51.866ZM57.642 60.0072H40.8303V52.0409L42.5229 53.7335C42.6811 53.8916 42.8951 53.9797 43.1173 53.9797C43.1357 53.9797 43.1543 53.9791 43.1728 53.9779C43.4144 53.962 43.6375 53.8425 43.7848 53.6502L48.7827 47.1214H49.1862C53.8488 47.1213 57.642 50.9146 57.642 55.5771V60.0072Z" fill="white"/>
</svg>
