<svg width="61" height="60" viewBox="0 0 61 60" fill="none" xmlns="http://www.w3.org/2000/svg">
<ellipse cx="30.4722" cy="29.893" rx="30" ry="29.3974" fill="white"/>
<g clip-path="url(#clip0)">
<g clip-path="url(#clip1)">
<path d="M30.0218 16.5112C23.0555 16.8506 17.558 22.7872 17.5792 29.9236C17.5856 32.0972 18.0984 34.1487 19.003 35.9615L17.6141 42.8603C17.539 43.2335 17.8679 43.5602 18.2302 43.4724L24.8366 41.8708C26.5339 42.736 28.4403 43.2357 30.4579 43.2672C37.5782 43.3784 43.5152 37.5933 43.7372 30.3101C43.9751 22.5031 37.6781 16.1381 30.0218 16.5112ZM37.9046 37.2939C35.9699 39.2736 33.3975 40.3639 30.6614 40.3639C29.0593 40.3639 27.5255 39.9961 26.1024 39.2707L25.1823 38.8017L21.1319 39.7837L21.9845 35.5487L21.5313 34.6404C20.7925 33.1599 20.4179 31.559 20.4179 29.8822C20.4179 27.0824 21.4834 24.4502 23.4181 22.4704C25.3356 20.5084 27.9499 19.4003 30.6616 19.4003C33.3977 19.4004 35.97 20.4907 37.9047 22.4703C39.8394 24.4501 40.9049 27.0822 40.905 29.882C40.9049 32.6568 39.8221 35.3319 37.9046 37.2939Z" fill="#7AD06D"/>
<path d="M37.0104 32.7854L34.4764 32.0409C34.1432 31.943 33.7845 32.0397 33.5417 32.2928L32.9221 32.9388C32.6608 33.2112 32.2643 33.2988 31.9184 33.1556C30.7197 32.6592 28.1981 30.365 27.5541 29.2175C27.3684 28.8865 27.3991 28.4726 27.6272 28.1706L28.1682 27.4544C28.3802 27.1738 28.4249 26.7969 28.2847 26.4726L27.2186 24.0052C26.9632 23.4143 26.2252 23.2422 25.7431 23.6595C25.0358 24.2716 24.1967 25.2017 24.0947 26.2321C23.9148 28.0489 24.6762 30.339 27.5556 33.0889C30.882 36.2658 33.5458 36.6855 35.2802 36.2556C36.264 36.0118 37.0501 35.0344 37.5463 34.2341C37.8845 33.6884 37.6174 32.9637 37.0104 32.7854Z" fill="#7AD06D"/>
</g>
</g>
<defs>
<clipPath id="clip0">
<rect width="32.2785" height="31.6301" fill="white" transform="translate(14.1431 13.8918)"/>
</clipPath>
<clipPath id="clip1">
<rect width="26.3778" height="26.9912" fill="white" transform="translate(17.4722 16.4956)"/>
</clipPath>
</defs>
</svg>
