<svg width="32" height="32" viewBox="0 0 32 32" fill="none" xmlns="http://www.w3.org/2000/svg">
<g clip-path="url(#clip0)">
<path d="M31.8434 9.44495C31.8255 8.10134 31.574 6.77109 31.1001 5.51369C30.6891 4.45309 30.0615 3.48987 29.2572 2.68559C28.4529 1.8813 27.4897 1.25362 26.4291 0.842666C25.1878 0.376728 23.8765 0.124788 22.551 0.0975719C20.8444 0.0212885 20.3033 0 15.9711 0C11.6389 0 11.0837 1.18958e-07 9.38947 0.0975719C8.06455 0.124988 6.75387 0.376925 5.51321 0.842666C4.45244 1.25334 3.48907 1.88091 2.68475 2.68523C1.88042 3.48956 1.25285 4.45293 0.842177 5.51369C0.375307 6.75398 0.123913 8.06495 0.0988575 9.38996C0.0225741 11.0983 -0.000488281 11.6394 -0.000488281 15.9716C-0.000488281 20.3038 -0.000488294 20.8573 0.0988575 22.5533C0.125468 23.8803 0.375606 25.1895 0.842177 26.4331C1.25354 27.4935 1.88158 28.4565 2.68617 29.2605C3.49077 30.0645 4.45422 30.6918 5.51498 31.1023C6.75225 31.587 8.06315 31.857 9.39124 31.9007C11.0996 31.9769 11.6407 32 15.9729 32C20.3051 32 20.8604 32 22.5546 31.9007C23.88 31.8746 25.1914 31.6232 26.4326 31.1573C27.4929 30.7459 28.4559 30.1181 29.2601 29.3138C30.0644 28.5096 30.6922 27.5466 31.1036 26.4863C31.5702 25.2445 31.8203 23.9353 31.8469 22.6065C31.9232 20.8999 31.9463 20.3588 31.9463 16.0248C31.9427 11.6927 31.9427 11.1427 31.8434 9.44495V9.44495ZM15.9605 24.1641C11.4296 24.1641 7.75913 20.4936 7.75913 15.9627C7.75913 11.4319 11.4296 7.76139 15.9605 7.76139C18.1356 7.76139 20.2217 8.62546 21.7597 10.1635C23.2978 11.7016 24.1618 13.7876 24.1618 15.9627C24.1618 18.1379 23.2978 20.2239 21.7597 21.762C20.2217 23.3 18.1356 24.1641 15.9605 24.1641V24.1641ZM24.4883 9.37044C24.2371 9.37067 23.9883 9.32137 23.7561 9.22534C23.524 9.12932 23.3131 8.98846 23.1355 8.81083C22.9578 8.6332 22.817 8.42229 22.721 8.19016C22.6249 7.95803 22.5756 7.70924 22.5759 7.45803C22.5759 7.20701 22.6253 6.95844 22.7214 6.72653C22.8174 6.49461 22.9582 6.28389 23.1357 6.10638C23.3132 5.92888 23.524 5.78808 23.7559 5.69202C23.9878 5.59596 24.2364 5.54651 24.4874 5.54651C24.7384 5.54651 24.987 5.59596 25.2189 5.69202C25.4508 5.78808 25.6615 5.92888 25.839 6.10638C26.0165 6.28389 26.1573 6.49461 26.2534 6.72653C26.3495 6.95844 26.3989 7.20701 26.3989 7.45803C26.3989 8.51536 25.5438 9.37044 24.4883 9.37044Z" fill="#5F55E1"/>
<path d="M15.9505 21.2994C18.8927 21.2994 21.2779 18.9142 21.2779 15.972C21.2779 13.0297 18.8927 10.6445 15.9505 10.6445C13.0082 10.6445 10.623 13.0297 10.623 15.972C10.623 18.9142 13.0082 21.2994 15.9505 21.2994Z" fill="#5F55E1"/>
</g>
<defs>
<clipPath id="clip0">
<rect width="32" height="32" fill="white" transform="translate(-0.000488281)"/>
</clipPath>
</defs>
</svg>
