<svg width="366" height="395" viewBox="0 0 366 395" fill="none" xmlns="http://www.w3.org/2000/svg">
<g clip-path="url(#clip0)">
<path d="M158.191 126.585C157.917 123.847 157.026 121.207 155.584 118.863C154.142 116.519 152.188 114.533 149.868 113.053C147.548 111.574 144.922 110.64 142.189 110.321C139.456 110.003 136.686 110.308 134.088 111.215L135.407 111.35C129.49 112.533 124.232 115.892 120.672 120.763C118.932 123.198 117.737 125.979 117.166 128.916C116.595 131.854 116.663 134.88 117.364 137.789C118.859 143.566 123.273 148.579 128.922 150.502C132.064 151.571 135.436 151.702 138.753 151.815C140.906 151.888 143.098 151.953 145.174 151.377C147.844 150.549 150.191 148.913 151.891 146.694C153.574 144.483 154.914 142.031 155.864 139.419C157.473 135.335 158.628 130.953 158.191 126.585Z" fill="#2F2E41"/>
<path d="M205.099 392.773C200.409 375.131 210.825 357.936 222.997 346.033C229.484 339.689 236.708 334.174 243.752 328.478C250.512 323.071 256.95 317.274 263.031 311.115C274.776 299.095 285.02 285.357 291.804 269.916C298.256 255.232 301.305 239.236 299.795 223.214C298.362 208.018 292.915 193.07 282.896 181.412C281.647 179.959 280.334 178.567 278.956 177.234C278.217 176.517 277.084 177.647 277.824 178.366C289.013 189.23 295.525 203.952 297.729 219.269C300.002 235.065 297.66 251.168 291.753 265.935C285.461 281.667 275.456 295.705 263.852 307.954C258.009 314.084 251.793 319.848 245.239 325.212C238.24 330.977 230.967 336.424 224.303 342.586C212.02 353.941 200.981 369.56 202.497 387.143C202.674 389.188 203.028 391.214 203.556 393.198C203.619 393.396 203.755 393.563 203.937 393.662C204.12 393.761 204.333 393.786 204.533 393.731C204.733 393.676 204.904 393.545 205.01 393.366C205.115 393.188 205.147 392.975 205.099 392.773V392.773Z" fill="#F0F0F0"/>
<path d="M254.22 292.34C246.828 279.667 241.175 266.058 237.413 251.878C233.639 237.702 231.751 223.089 231.798 208.419C231.852 193.75 233.633 178.713 238.181 164.724C242.497 151.447 250.23 138.786 262.508 131.541C268.769 127.868 275.917 125.98 283.175 126.083C290.841 126.155 298.402 128.173 305.309 131.441C312.074 134.641 318.26 138.953 323.975 143.761C329.423 148.337 334.508 153.329 339.182 158.694C348.443 169.344 356.01 181.675 360.236 195.196C364.64 209.287 365.412 224.699 361.324 238.961C357.399 252.658 348.798 264.333 338.239 273.712C326.829 283.847 313.312 291.212 299.683 297.897C296.271 299.57 292.841 301.205 289.412 302.84C288.483 303.282 289.293 304.662 290.219 304.221C304.591 297.371 319.105 290.462 331.916 280.899C343.221 272.461 353.297 261.868 359.291 248.965C365.63 235.321 366.929 219.806 364.302 205.085C361.734 190.697 355.292 177.231 346.671 165.504C342.387 159.702 337.625 154.268 332.437 149.259C327.113 144.002 321.3 139.264 315.078 135.111C302.322 126.773 286.37 121.738 271.254 126.033C257.814 129.851 247.471 140.619 241.317 152.822C237.872 159.652 235.55 166.998 233.898 174.452C232.287 181.797 231.203 189.248 230.656 196.749C228.46 226.677 234.325 256.646 247.643 283.538C249.265 286.799 250.997 290.002 252.839 293.147C252.949 293.323 253.124 293.448 253.326 293.498C253.527 293.547 253.74 293.516 253.919 293.411C254.099 293.306 254.23 293.136 254.286 292.936C254.342 292.736 254.319 292.523 254.22 292.34Z" fill="#F0F0F0"/>
<path d="M244.088 276.875C236.696 264.202 231.043 250.593 227.281 236.413C223.506 222.237 221.619 207.624 221.666 192.954C221.72 178.285 223.501 163.248 228.049 149.259C232.365 135.982 240.098 123.32 252.375 116.075C258.637 112.403 265.784 110.515 273.043 110.618C280.709 110.69 288.269 112.708 295.177 115.976C301.942 119.176 308.128 123.488 313.843 128.296C319.291 132.872 324.375 137.864 329.05 143.229C338.311 153.879 345.877 166.21 350.103 179.731C354.508 193.822 355.28 209.234 351.192 223.496C347.266 237.193 338.666 248.868 328.107 258.247C316.697 268.382 303.18 275.747 289.55 282.432C286.139 284.105 282.709 285.74 279.279 287.374C278.35 287.817 279.161 289.197 280.087 288.756C294.459 281.906 308.973 274.997 321.784 265.434C333.088 256.996 343.164 246.403 349.159 233.5C355.498 219.856 356.797 204.341 354.17 189.62C351.602 175.232 345.16 161.766 336.539 150.039C332.254 144.237 327.493 138.803 322.304 133.794C316.981 128.537 311.168 123.799 304.945 119.646C292.19 111.308 276.238 106.273 261.121 110.568C247.682 114.386 237.339 125.154 231.184 137.357C227.74 144.187 225.418 151.533 223.766 158.987C222.155 166.332 221.071 173.783 220.524 181.283C218.327 211.212 224.193 241.181 237.511 268.073C239.133 271.334 240.865 274.537 242.706 277.682C242.817 277.858 242.992 277.983 243.193 278.033C243.395 278.082 243.608 278.051 243.787 277.946C243.966 277.841 244.098 277.671 244.154 277.471C244.21 277.271 244.186 277.057 244.088 276.875Z" fill="#F0F0F0"/>
<path d="M98.4435 246.892C97.8792 246.096 97.4962 245.186 97.3216 244.226C97.147 243.266 97.185 242.28 97.4329 241.336C97.6808 240.393 98.1326 239.515 98.7564 238.765C99.3803 238.015 100.161 237.41 101.044 236.995L119.536 179.092L132.415 185.782L110.188 240.595C110.788 242.124 110.807 243.82 110.24 245.362C109.673 246.904 108.56 248.184 107.113 248.96C105.665 249.736 103.983 249.954 102.385 249.573C100.787 249.192 99.3849 248.238 98.4435 246.892H98.4435Z" fill="#FFB6B6"/>
<path d="M113.551 187.099C113.374 186.707 113.284 186.282 113.286 185.852C113.289 185.422 113.384 184.998 113.565 184.608L119.899 170.99C120.524 168.881 121.96 167.105 123.892 166.053C125.823 165.001 128.094 164.757 130.205 165.376C132.316 165.995 134.095 167.425 135.153 169.354C136.211 171.282 136.462 173.552 135.849 175.665L133.732 190.583C133.672 191.009 133.52 191.416 133.288 191.778C133.056 192.14 132.748 192.448 132.386 192.68C132.024 192.912 131.617 193.064 131.191 193.125C130.765 193.185 130.332 193.153 129.919 193.031L115.429 188.738C115.016 188.616 114.635 188.406 114.311 188.124C113.987 187.841 113.728 187.491 113.551 187.099Z" fill="#2F2E41"/>
<path d="M166.975 189.397C162.574 200.921 163.699 213.009 169.119 225.535H130.722C132.265 216.623 131.639 208.34 125.922 201.536L166.975 189.397Z" fill="#FFB6B6"/>
<path d="M122.037 168.219L133.401 159.955L151.996 154.79L167.492 157.889L168.403 166.452C169.511 176.867 169.03 187.391 166.976 197.662L126.686 206.96L122.554 199.728C122.554 199.728 113.256 190.43 120.488 180.1L122.037 168.219Z" fill="#2F2E41"/>
<path d="M220.738 110.412C220.991 111.354 221.035 112.34 220.866 113.301C220.698 114.262 220.32 115.174 219.761 115.973C219.201 116.773 218.473 117.44 217.628 117.927C216.783 118.415 215.842 118.711 214.87 118.795L177.461 166.705L167.698 155.967L207.539 112.25C207.506 110.607 208.076 109.01 209.142 107.76C210.208 106.51 211.695 105.695 213.322 105.468C214.949 105.242 216.602 105.62 217.969 106.531C219.336 107.442 220.321 108.823 220.738 110.412Z" fill="#FFB6B6"/>
<path d="M185.849 161.267C185.879 161.696 185.817 162.127 185.665 162.529C185.514 162.932 185.278 163.297 184.973 163.6L174.313 174.18C172.996 175.942 171.034 177.111 168.857 177.429C166.68 177.747 164.466 177.189 162.7 175.877C160.934 174.565 159.76 172.606 159.436 170.43C159.112 168.254 159.664 166.038 160.971 164.268L168.125 151.008C168.329 150.629 168.613 150.299 168.956 150.04C169.299 149.781 169.694 149.599 170.114 149.507C170.534 149.414 170.969 149.413 171.389 149.504C171.81 149.594 172.205 149.775 172.55 150.032L184.655 159.08C185 159.337 185.285 159.666 185.491 160.043C185.697 160.421 185.819 160.838 185.849 161.267Z" fill="#2F2E41"/>
<path d="M122.088 382.286H127.972L130.771 359.591H122.087L122.088 382.286Z" fill="#FFB6B6"/>
<path d="M120.095 379.383L129.397 378.828V382.813L138.24 388.921C138.677 389.222 139.005 389.656 139.179 390.157C139.352 390.659 139.36 391.203 139.202 391.71C139.044 392.217 138.728 392.66 138.301 392.974C137.873 393.289 137.356 393.458 136.825 393.458H125.752L123.843 389.516L123.098 393.458H118.922L120.095 379.383Z" fill="#2F2E41"/>
<path d="M163.685 382.286H169.569L172.368 359.591H163.684L163.685 382.286Z" fill="#FFB6B6"/>
<path d="M161.692 379.383L170.993 378.828V382.813L179.836 388.921C180.273 389.222 180.602 389.656 180.775 390.157C180.948 390.659 180.957 391.203 180.799 391.71C180.641 392.217 180.325 392.66 179.897 392.974C179.47 393.289 178.953 393.458 178.422 393.458H167.348L165.44 389.516L164.694 393.458H160.519L161.692 379.383Z" fill="#2F2E41"/>
<path d="M179.316 255.127V266.7L178.185 280.838C178.185 280.838 177.828 293.183 177.396 302.921C177.135 308.841 176.841 313.795 176.585 314.435C176.271 315.219 176.345 317.358 176.527 319.603C176.74 322.2 177.092 324.941 177.151 325.858C177.263 327.57 176.356 334.924 176.356 334.924C176.356 334.924 175.343 353.366 173.871 354.838C172.399 356.31 173.871 360.496 173.871 360.496C166.97 365.584 158.256 359.365 158.256 359.365C160.181 356.299 157.125 335.367 157.125 335.367C157.125 335.367 156.677 328.221 155.771 326.301C154.864 324.381 154.635 312.387 154.635 312.387V294.623C154.635 294.623 152.256 290.986 151.92 289.29C151.584 287.595 151.92 281.6 151.92 281.6L149.435 273.228L147.734 279.787C147.734 279.787 143.329 298.116 142.534 300.378C141.74 302.639 142.982 304.905 142.982 304.905C142.982 304.905 144.118 308.393 142.982 309.993C142.277 310.995 141.736 312.104 141.383 313.278C141.383 313.278 140.801 319.955 139.783 322.344C138.764 324.733 137.863 327.677 137.863 327.677C137.863 327.677 138.103 332.189 137.084 333.207C136.065 334.226 135.73 339.319 135.73 339.319C135.73 339.319 135.953 345.084 134.593 347.121C133.234 349.158 133.234 360.699 133.234 360.699C130.875 362.212 128.157 363.072 125.358 363.191C122.558 363.31 119.777 362.684 117.299 361.376C117.299 361.376 118.643 360.117 117.624 354.251C116.606 348.385 118.355 332.413 118.355 332.413C118.355 332.413 118.131 328.36 119.261 326.546C120.392 324.733 118.691 321.229 119.144 319.646C119.597 318.062 120.957 309.46 120.957 309.46C120.957 309.46 120.392 288.304 120.392 287.173C120.258 285.161 119.714 283.197 118.792 281.403C117.774 279.595 118.792 266.471 118.792 266.471C118.792 266.471 121.192 259.687 120.392 258.215C119.592 256.743 120.925 254.141 120.925 254.141C120.925 254.141 119.683 251.085 120.925 250.52C122.168 249.955 122.397 247.693 122.397 247.693L123.261 236.718C123.261 236.718 123.586 231.737 124.621 231.513C125.656 231.289 125.202 229.369 126.221 228.009C126.717 227.09 127.059 226.096 127.234 225.066C127.378 224.436 127.511 223.78 127.623 223.151C127.943 221.445 128.141 219.973 128.141 219.973C134.818 225.519 169.924 221.631 169.962 221.631C172.191 222.117 174.841 229.855 176.756 236.601C178.458 242.629 179.319 248.864 179.316 255.127Z" fill="#2F2E41"/>
<path d="M153.781 140.227C156.34 131.809 151.59 122.911 143.173 120.352C134.755 117.793 125.856 122.542 123.297 130.96C120.738 139.378 125.488 148.276 133.906 150.835C142.324 153.394 151.222 148.645 153.781 140.227Z" fill="#FFB6B6"/>
<path d="M120.533 138.37L126.702 137.087L127.837 128.9L129.967 136.407L132.915 135.794L133.578 131.018L134.82 135.397L156.728 130.839C156.277 128.671 155.403 126.613 154.157 124.782C152.91 122.952 151.315 121.385 149.463 120.171C147.611 118.956 145.538 118.119 143.362 117.706C141.187 117.293 138.951 117.313 136.783 117.764L133.608 118.425C129.229 119.336 125.391 121.949 122.939 125.69C120.487 129.43 119.622 133.991 120.533 138.37Z" fill="#2F2E41"/>
<path d="M183.641 18.5851L183.6 18.6628C175.555 14.9564 166.392 14.4868 158.01 17.3514C149.628 20.216 142.669 26.1952 138.575 34.0504C134.481 41.9055 133.566 51.0344 136.019 59.546C138.472 68.0576 144.105 75.2994 151.751 79.7711L151.711 79.8489L212.975 111.779L244.904 50.5148C247.006 46.4917 248.294 42.0938 248.695 37.5725C249.097 33.0513 248.603 28.4953 247.242 24.165C245.881 19.8347 243.68 15.8151 240.765 12.3359C237.85 8.85665 234.278 5.98607 230.253 3.88823C226.228 1.79039 221.829 0.506415 217.307 0.109717C212.785 -0.286981 208.23 0.21137 203.901 1.57628C199.572 2.9412 195.554 5.14591 192.078 8.06439C188.602 10.9829 185.734 14.5579 183.641 18.5851Z" fill="#FFBB3A"/>
<path d="M238.223 370.136L238.213 370.156C236.179 369.219 233.864 369.1 231.745 369.824C229.626 370.548 227.868 372.059 226.833 374.045C225.798 376.03 225.567 378.337 226.187 380.489C226.807 382.64 228.23 384.47 230.163 385.601L230.153 385.62L245.637 393.69L253.707 378.206C254.239 377.189 254.564 376.078 254.666 374.935C254.767 373.792 254.643 372.64 254.299 371.546C253.955 370.451 253.399 369.435 252.662 368.556C251.925 367.676 251.022 366.951 250.005 366.421C248.987 365.89 247.875 365.566 246.732 365.466C245.589 365.365 244.438 365.491 243.344 365.836C242.25 366.181 241.234 366.739 240.356 367.476C239.477 368.214 238.752 369.118 238.223 370.136Z" fill="#FF6584"/>
<path d="M32.8153 173.801V173.888C23.9679 174.32 15.6255 178.138 9.51651 184.553C3.40748 190.967 -4.11311e-06 199.485 0 208.343C4.11312e-06 217.201 3.4075 225.72 9.51655 232.134C15.6256 238.548 23.968 242.367 32.8154 242.798V242.886L101.901 242.886L101.901 173.801C101.905 169.262 101.015 164.766 99.2807 160.572C97.5467 156.377 95.003 152.565 91.795 149.354C88.587 146.143 84.7776 143.595 80.5845 141.857C76.3914 140.119 71.8969 139.225 67.3579 139.225C62.819 139.225 58.3245 140.119 54.1314 141.857C49.9383 143.595 46.1289 146.143 42.9209 149.354C39.7129 152.565 37.1692 156.377 35.4352 160.572C33.7012 164.766 32.811 169.262 32.8153 173.801V173.801Z" fill="#FFBB3A"/>
<path d="M354.779 394.539H9.57981C9.4114 394.539 9.2499 394.473 9.13081 394.354C9.01173 394.234 8.94482 394.073 8.94482 393.905C8.94482 393.736 9.01173 393.575 9.13081 393.456C9.2499 393.336 9.4114 393.27 9.57981 393.27H354.779C354.947 393.27 355.109 393.336 355.228 393.456C355.347 393.575 355.414 393.736 355.414 393.905C355.414 394.073 355.347 394.234 355.228 394.354C355.109 394.473 354.947 394.539 354.779 394.539Z" fill="#CACACA"/>
<path d="M299.818 239.066C306.874 239.022 313.697 236.532 319.122 232.02C324.646 227.375 328.281 220.872 329.343 213.734C329.967 209.698 329.766 205.578 328.752 201.623C328.69 201.425 328.554 201.259 328.372 201.159C328.189 201.06 327.976 201.035 327.776 201.091C327.576 201.146 327.405 201.276 327.299 201.455C327.194 201.634 327.161 201.846 327.21 202.048C328.92 208.764 328.148 215.872 325.037 222.064C322.647 226.695 319.031 230.58 314.584 233.296C310.137 236.012 305.029 237.455 299.818 237.467C299.611 237.474 299.414 237.561 299.27 237.71C299.126 237.86 299.045 238.059 299.045 238.266C299.045 238.474 299.126 238.673 299.27 238.823C299.414 238.972 299.611 239.059 299.818 239.066V239.066Z" fill="#F0F0F0"/>
<path d="M176.281 31.2628C171.729 26.9416 164.542 26.953 159.285 29.9611C153.385 33.3368 150.711 40.3123 150.846 46.8617C150.998 54.2329 154.602 60.9073 159.255 66.4352C164.215 72.179 169.987 77.168 176.388 81.2444C182.771 85.4016 189.678 88.6932 196.928 91.0327C197.82 91.3204 198.717 91.5931 199.619 91.8507C199.821 91.8988 200.033 91.8667 200.212 91.7611C200.391 91.6555 200.521 91.4847 200.576 91.2847C200.632 91.0846 200.607 90.871 200.508 90.6888C200.408 90.5065 200.242 90.37 200.044 90.3079C186.122 86.3296 173.465 78.8197 163.301 68.5071C158.462 63.5514 154.162 57.5953 152.84 50.6631C151.672 44.541 152.962 37.4327 157.707 33.0719C162.32 28.8329 170.393 27.8784 175.15 32.3941C175.897 33.1028 177.03 31.9734 176.281 31.2628V31.2628Z" fill="white"/>
<path d="M31.6322 190.63C25.4835 189.865 19.709 194.19 17.3142 199.653C14.6285 205.778 16.4392 212.84 20.3348 218.017C24.625 223.719 31.1234 227.042 37.9164 228.807C45.2081 230.7 52.9487 231.212 60.4547 230.862C69.3278 230.451 78.0841 228.671 86.4136 225.585C87.3704 225.23 86.9565 223.683 85.9883 224.043C72.1223 229.191 56.6861 230.815 42.1049 228.097C35.5872 226.882 28.9492 224.564 24.0923 219.875C19.6914 215.626 16.5781 209.191 17.9025 202.976C19.2186 196.801 25.0896 191.416 31.6322 192.23C32.6514 192.357 32.6422 190.755 31.6322 190.63Z" fill="white"/>
<path d="M133.929 112.262C135.416 106.317 132.535 99.9406 128.075 95.7378C123.615 91.5351 117.795 89.1198 112.035 87.0284C107.441 85.3607 102.061 83.91 97.9031 86.4787C94.5624 88.5427 93.1133 92.5519 91.2035 95.9831C87.5643 102.522 81.6929 107.532 74.6633 110.097C67.6337 112.662 59.9155 112.611 52.9204 109.953C55.386 117.111 63.8787 120.612 71.4335 120.125C78.9882 119.639 85.9659 116.16 93.0034 113.37C100.041 110.58 107.869 108.425 115.103 110.659C118.155 111.602 120.932 113.285 123.955 114.321C126.977 115.356 130.515 115.665 133.208 113.947" fill="#2F2E41"/>
<path d="M239.741 330L234.592 320.935C234.481 320.76 234.306 320.634 234.105 320.585C233.903 320.536 233.69 320.567 233.511 320.672C233.332 320.776 233.2 320.947 233.144 321.147C233.088 321.346 233.112 321.56 233.21 321.743L238.36 330.807C238.471 330.983 238.646 331.109 238.847 331.158C239.049 331.207 239.262 331.176 239.441 331.071C239.62 330.966 239.752 330.796 239.808 330.596C239.864 330.396 239.84 330.183 239.741 330Z" fill="#F0F0F0"/>
</g>
<defs>
<clipPath id="clip0">
<rect width="365.582" height="394.54" fill="white"/>
</clipPath>
</defs>
</svg>
