<svg width="32" height="32" viewBox="0 0 32 32" fill="none" xmlns="http://www.w3.org/2000/svg">
<g clip-path="url(#clip0)">
<path d="M29.1049 0H2.89417C1.29551 0 -0.000488281 1.296 -0.000488281 2.89466V29.1053C-0.000488281 30.704 1.29551 32 2.89417 32H29.1048C30.7035 32 31.9995 30.704 31.9995 29.1053V2.89466C31.9995 1.296 30.7035 0 29.1049 0ZM9.90167 27.6309C9.90167 28.0962 9.52454 28.4733 9.05928 28.4733H5.47344C5.00818 28.4733 4.63105 28.0962 4.63105 27.6309V12.5992C4.63105 12.1339 5.00818 11.7568 5.47344 11.7568H9.05928C9.52454 11.7568 9.90167 12.1339 9.90167 12.5992V27.6309ZM7.26636 10.3399C5.38498 10.3399 3.85978 8.81466 3.85978 6.93328C3.85978 5.0519 5.38498 3.5267 7.26636 3.5267C9.14774 3.5267 10.6729 5.0519 10.6729 6.93328C10.6729 8.81466 9.14783 10.3399 7.26636 10.3399ZM28.6412 27.6988C28.6412 28.1265 28.2944 28.4733 27.8667 28.4733H24.0188C23.5911 28.4733 23.2442 28.1265 23.2442 27.6988V20.648C23.2442 19.5962 23.5528 16.039 20.4955 16.039C18.1241 16.039 17.6431 18.4738 17.5465 19.5665V27.6988C17.5465 28.1265 17.1998 28.4733 16.772 28.4733H13.0504C12.6227 28.4733 12.2759 28.1265 12.2759 27.6988V12.5314C12.2759 12.1036 12.6227 11.7568 13.0504 11.7568H16.772C17.1997 11.7568 17.5465 12.1036 17.5465 12.5314V13.8428C18.4258 12.5231 19.7326 11.5046 22.515 11.5046C28.6765 11.5046 28.6412 17.2609 28.6412 20.4237V27.6988Z" fill="#5F55E1"/>
</g>
<defs>
<clipPath id="clip0">
<rect width="32" height="32" fill="white" transform="translate(-0.000488281)"/>
</clipPath>
</defs>
</svg>
