<svg width="32" height="32" viewBox="0 0 32 32" fill="none" xmlns="http://www.w3.org/2000/svg">
<path d="M30.789 13.7185V8.13276C28.2223 8.13276 26.2635 7.43454 24.9995 6.07744C23.7022 4.52863 22.9754 2.56723 22.9442 0.531039V0.127843L17.7627 0C17.7627 0 17.7627 0.226184 17.7627 0.531039V22.6872C17.5849 23.677 17.1135 24.5875 16.4119 25.2956C15.7104 26.0037 14.8126 26.4754 13.8397 26.647C12.8668 26.8186 11.8656 26.6818 10.9714 26.2552C10.0771 25.8285 9.33289 25.1325 8.83908 24.2611C8.34527 23.3897 8.12569 22.3849 8.20998 21.3822C8.29427 20.3796 8.67837 19.4275 9.31042 18.6544C9.94248 17.8813 10.7921 17.3245 11.7445 17.0591C12.6969 16.7937 13.7063 16.8325 14.6364 17.1702V11.7615C14.0941 11.671 13.5455 11.6249 12.996 11.6238C11.0189 11.6238 9.08617 12.2214 7.44225 13.3408C5.79834 14.4603 4.51706 16.0515 3.76045 17.9131C3.00384 19.7747 2.80588 21.8232 3.1916 23.7995C3.57731 25.7758 4.52939 27.5912 5.92742 29.016C7.32545 30.4408 9.10666 31.4111 11.0458 31.8042C12.9849 32.1973 14.9949 31.9956 16.8215 31.2245C18.6481 30.4534 20.2094 29.1475 21.3078 27.4721C22.4062 25.7967 22.9925 23.8269 22.9925 21.8119C22.9914 21.3944 22.9656 20.9773 22.9153 20.563V11.5648C25.2714 13.0645 28.0127 13.8143 30.789 13.7185Z" fill="#FAFCFE"/>
</svg>
